<?xml version="1.0" encoding="utf-8"?>
<!-- Generator: Adobe Illustrator 22.0.1, SVG Export Plug-In . SVG Version: 6.00 Build 0)  -->
<svg version="1.1" xmlns="http://www.w3.org/2000/svg" xmlns:xlink="http://www.w3.org/1999/xlink" x="0px" y="0px"
	 viewBox="0 0 1920 1175" style="enable-background:new 0 0 1920 1175;" xml:space="preserve">
<style type="text/css">
	.st0{fill:#00ABD0;}
	.st1{fill:#EB009F;}
	.st2{fill:#5EE045;}
	.st3{fill:#FA5C4F;}
	.st4{fill:#FF9947;}
	.st5{fill:#FFFFFF;}
	.st6{fill:#FFE817;}
</style>
<g id="Capa_2">
</g>
<g id="Capa_1">
	<g id="layer101">
		<path class="st0" d="M358.9,1172.5c-21.9-7-37-24.5-40.5-47c-4-24.3,9-48.8,32-60.6c7.8-4,10.4-4.5,24.8-4.5
			c18.9,0,26.4,2.7,38.6,13.9c9.4,8.8,14.1,16,17.6,27.8c7.5,25.9-6.6,55.7-31.8,67.2C387.8,1174.5,369.9,1176,358.9,1172.5z"/>
	</g>
	<g id="layer102">
		<path class="st1" d="M1235,1171c-16.3-6.9-26.2-16.2-33.3-31.5c-3.4-7.2-4-11.2-4-22.4c0-17.8,5.1-29.8,17.6-41.6
			c13.1-12.3,20.5-15.2,39.8-15.2c14.2,0,17,0.5,25.1,4.5c34.1,16.8,43.2,62.6,17.9,90.6c-10.7,11.8-24.5,18.2-41.1,18.9
			C1246.1,1174.7,1242.6,1174.2,1235,1171z"/>
		<path class="st1" d="M1411,1171c-16.3-6.9-26.1-16.2-33.3-31.5c-3.4-7.4-4.2-11.2-4-22.4c0-17.6,5.1-29.8,17.6-41.6
			c13.1-12.3,20.5-15.2,39.8-15.2c14.2,0,17,0.5,25.1,4.5c34.1,16.8,43,62.6,17.9,90.6c-10.7,11.8-24.5,18.2-41.1,18.9
			C1422.1,1174.7,1418.6,1174.2,1411,1171z"/>
	</g>
	<g id="layer103">
		<path class="st2" d="M534.9,1172.5c-34.1-11-50.4-47.4-35.8-80c4.5-10.2,16-21.9,26.9-27.5c8.5-4.2,10.7-4.6,25.3-4.6
			c19.4,0,26.7,2.9,39.8,15.2c12.5,11.8,17.6,24,17.6,41.6c0.2,11.4-0.6,15-4.2,22.7c-9.8,21-28.5,33.6-50.9,34.4
			C546.6,1174.5,538.7,1173.7,534.9,1172.5z"/>
		<path class="st2" d="M983.5,700c-0.6-43.7-1.1-143.4-1.1-221.6V336.3h13.3h13.4l1,79.5c0.6,43.7,1.1,143.4,1.1,221.6v142.1h-13.3
			h-13.4L983.5,700z"/>
	</g>
	<g id="layer104">
		<path class="st3" d="M1059,1171c-20.6-8.6-32.3-22.4-36.6-43.2c-5-24.6,8.6-51.7,31.8-63c8-4,10.7-4.5,25-4.5s17,0.5,25,4.5
			c11.2,5.4,22.7,17.4,28.3,29.6c3.5,7.5,4.2,11.4,4.2,21.9c-0.2,16.2-4.5,28-14.4,39C1106.6,1172.8,1079.4,1179.5,1059,1171z"/>
	</g>
	<g id="layer105">
		<path class="st4" d="M710.9,1172.5c-28.6-9.3-45.6-36.6-40.5-65.3c1.1-5.4,3.4-12.8,5.1-16.2c5-9.8,16.8-21.4,26.7-26.2
			c8-4,10.7-4.5,25-4.5c19.4,0,26.7,2.9,39.8,15.2c12.5,11.8,17.6,23.8,17.8,41.6c0,12.2-0.5,14.7-5.1,24.2
			c-9.9,20.2-28.3,32.2-50.1,33C722.7,1174.5,714.7,1173.7,710.9,1172.5z"/>
		<path class="st4" d="M886.9,1172.5c-16.6-5.4-29.8-17.1-37-32.8c-5.9-13.1-5.9-32.5,0-45.3c5.6-12,17.1-24.2,28.3-29.6
			c8-4,10.7-4.5,25-4.5c14.2,0,17,0.5,25,4.5c11.2,5.4,22.7,17.4,28.3,29.6c3.5,7.5,4.3,11.4,4.3,22.7c0,12.2-0.5,14.7-5.1,24.2
			c-9.9,20.2-28.3,32.2-50.1,33C898.7,1174.5,890.7,1173.7,886.9,1172.5z"/>
	</g>
	<g id="layer106">
		<path class="st5" d="M581.4,743c-19.2-27.8-51.8-75.5-72.6-105.9c-35.8-52.5-84.5-123.4-109.8-160c-6.2-9.3-25.1-36.8-41.9-61.3
			c-16.6-24.5-32.2-46.6-34.2-49.3l-3.7-5L300,389.3c-10.4,15.4-36,52.6-56.8,83c-20.8,30.4-51.4,75-68,99.2
			c-16.6,24.2-47.2,68.8-68,99.2c-74.4,108.8-83.4,121.6-85,121.6c-1,0-6.2-3.4-12-7.4L0,777.6l13.3-19.4
			c35.7-52.2,99.4-145.3,123.5-180.3c14.7-21.6,41-59.7,58.1-84.8c17.3-25.1,35-51,39.5-57.6s21.8-31.8,38.4-56
			c16.6-24.2,33.8-49.3,38.1-55.5c4.5-6.4,8.5-11.7,9-11.7c0.5,0.2,10.9,14.7,22.9,32.5c12,17.8,34.7,51,50.4,73.9
			s34.9,51,42.7,62.4c17.4,25.4,70.4,102.7,81.8,119.2c4.5,6.6,22.2,32.5,39.5,57.6c17.1,25.1,42.4,62.1,56.2,82.1
			c13.9,20.2,25.1,37.1,25.1,37.6c-0.2,0.6-5.1,4.5-11.2,8.6l-11,7.7L581.4,743z"/>
		<path class="st5" d="M1881.3,763.8c-9.1-12-45.6-60.3-81.1-107l-64.5-85.3h-119.8H1496v104v104h-13.3h-13.4l-1-113.9
			c-0.6-62.7-1.1-164.6-1.1-226.4V326.7h171.7c166.6,0,172.2,0.2,184.5,3.2c54.2,13.8,93.4,63.7,93.4,119.2c0,47-27.8,90.6-71,111
			c-17.9,8.5-25.6,10.2-51.7,11.2l-22.6,1l30.2,40c16.6,22.1,37.1,49,45.4,60c8.3,11,28.2,37.1,44,58.2c16,21,28.5,38.7,27.7,39.4
			c-0.6,0.6-5.8,4.5-11,8.5l-9.9,7.4L1881.3,763.8z M1813.3,541.7c34.4-7.8,58.6-29.6,71-63.8c4.2-11.4,4-46.1,0-57.6
			c-7.8-21.6-21.4-39.4-38.6-50.1c-26.6-17-19.4-16.3-198.7-16.3h-153.1l1,17.1c0.6,9.3,1.1,52.2,1.1,95.2v78.1h153
			C1784.5,544.3,1803,544,1813.3,541.7z"/>
		<path class="st5" d="M983.5,711.2c-0.5-37.8-1-137.4-1-221.6l-0.2-153.3h13.3h13.4l1,79.5c0.6,43.7,1.1,143.4,1.1,221.6v142.1
			h-13.4h-13.3L983.5,711.2z"/>
		<path class="st5" d="M81.9,72.8c0.5-35.4,0.8-40.3,3.5-45.3c3.7-6.9,10.9-16,12.6-16c0.6,0,1.1,7.5,1.1,16.8v16.8h55.2
			c61,0,57.6,0.6,53-10.1c-2.9-6.9-10.7-13.4-18.9-15.5c-4-1.1-18.2-1.6-37.1-1.3c-24.6,0.3-31.5,1-35.7,3.2l-5.3,2.6V13.9V3.7
			l6.6-1.8c4.2-1.1,19.5-1.6,42.1-1.3c34.7,0.5,35.5,0.5,43.5,4.8c10.1,5.3,18.6,14.6,22.4,24.6c2.7,6.9,3,12.3,3,44.6v36.8h-8.8
			h-8.8L209.9,88l-0.5-23.7h-55H99.2v24v24h-9h-8.8L81.9,72.8z"/>
		<path class="st5" d="M467.2,110.5c-15.7-3-29.8-16.5-34.6-33c-1.9-6.7-2.4-13.3-1.9-25.9c0.8-19.4,4-28,13.3-37l5.6-5.4v32
			c0,29.9,0.3,32.2,3.7,38.1c1.9,3.5,6.1,7.8,9.1,9.6c5.4,3.2,8.6,3.4,76.8,4.2l71.2,0.8v8.8v8.8l-68,0.2
			C505,111.8,471.2,111.3,467.2,110.5z"/>
		<path class="st5" d="M841.1,110.7c-9.1-2.4-17.3-7-23.7-13.9C805.8,84.6,805.6,84,805.1,40l-0.5-39.7h8.8h9v34.9
			c0,30.4,0.5,35.5,3,41.1c3.4,7.4,8.6,12.6,15,15c7.2,2.7,64,2.2,70.7-0.5l5.6-2.4v10.1c0,8.2-0.5,10.4-2.7,11.5
			C909.9,111.8,848.2,112.5,841.1,110.7z"/>
		<path class="st5" d="M1144.8,110.4c-0.5-1.1-0.6-26.2-0.5-55.7l0.5-53.6l9.3-0.5l9.1-0.5l-0.3,55.7l-0.5,55.7l-8.5,0.5
			C1148.2,112.3,1145.3,111.8,1144.8,110.4z"/>
		<path class="st5" d="M1401.6,110.9c-9-1.8-9.6-2.7-9.6-13.1c0-5.1,0.3-9.4,0.6-9.4c0.3,0,3.2,1.1,6.2,2.4
			c4.8,1.9,14.7,2.4,53.9,2.4h48v9.6v9.6l-46.7-0.2C1428.3,112,1404.6,111.5,1401.6,110.9z"/>
		<path class="st5" d="M1691.8,110.1c-0.5-1.3-0.6-18.4-0.3-38.1c0.5-33.3,0.8-36.2,4.2-43.7c3.5-7.8,10.7-16.8,13.4-16.8
			c0.6,0,1.3,7.5,1.3,16.8v16.8h55h55.2l-1.4-4.6c-3-10.6-10.4-18.1-20.5-21c-9.3-2.6-62.2-1.9-69.9,0.8c-3.5,1.3-6.9,2.4-7.5,2.4
			c-0.8,0-1.3-4.3-1.3-9.6V3.7l6.6-1.8c4.2-1.1,19.5-1.6,42.1-1.3c32.8,0.5,35.8,0.8,42.7,4c9,4.5,16.3,11.5,21.9,21.1l4.3,7.4
			l0.5,39.7l0.5,39.5h-8.8h-9v-24v-24h-55.2h-55l-0.5,23.7l-0.5,23.5l-8.5,0.5C1694.9,112.3,1692.5,111.8,1691.8,110.1z"/>
		<path class="st5" d="M928,50.7V0.3h8.8h8.8v37.4c0,29-0.5,38.9-2.4,44.2c-2.4,7-11.2,19.2-13.8,19.2
			C928.6,101.1,928,80.1,928,50.7z"/>
		<path class="st5" d="M1375,96c-10.2-12.2-11-16.2-11.5-57.6l-0.6-38.1h9.8h9.8v50.4c0,29.3-0.6,50.4-1.4,50.4S1377.4,98.7,1375,96
			z"/>
		<path class="st5" d="M580,77.1c3.2-6.2,3.4-36.6,0.2-42.9c-3-5.9-8.8-10.9-15.7-13.9c-8.6-3.5-88.2-3.5-96.8,0
			c-3,1.3-6.2,2.4-7,2.4c-0.8,0-1.4-4.3-1.4-9.6V3.7l6.1-1.8c3.8-1.3,22.2-1.6,54.7-1.3c46.4,0.5,49.1,0.6,55.2,4
			c8.2,4.3,19,15.8,22.6,24c3.4,7.8,5,37.1,2.4,46.6l-1.9,6.7h-10.4h-10.4L580,77.1z"/>
	</g>
	<g id="layer107">
		<path class="st6" d="M710.9,1172.5c-28.6-9.3-45.6-36.6-40.5-65.3c1.1-5.4,3.4-12.8,5.1-16.2c5-9.9,16.8-21.4,26.7-26.2
			c7.8-3.8,10.9-4.3,25-4.5c19.4,0,26.7,2.9,39.8,15.2c12.5,11.8,17.6,23.8,17.8,41.6c0,12.2-0.5,14.7-5.1,24.2
			c-9.9,20.2-28.3,32.2-50.1,33C722.7,1174.5,714.7,1173.7,710.9,1172.5z"/>
	</g>
</g>
</svg>
